<?xml version="1.0" encoding="UTF-8" standalone="no"?>
<!DOCTYPE svg PUBLIC "-//W3C//DTD SVG 1.1//EN" "http://www.w3.org/Graphics/SVG/1.1/DTD/svg11.dtd">
<svg width="100%" height="100%" viewBox="0 0 32 32" version="1.1" xmlns="http://www.w3.org/2000/svg" xmlns:xlink="http://www.w3.org/1999/xlink" xml:space="preserve" xmlns:serif="http://www.serif.com/" style="fill-rule:evenodd;clip-rule:evenodd;stroke-linecap:round;stroke-linejoin:round;stroke-miterlimit:1.4;">
    <g id="randabfallend">
        <path d="M3.779,13.064C3.779,13.064 11.487,5.326 14.511,2.29C15.172,1.626 16.246,1.623 16.911,2.283C19.966,5.314 27.779,13.064 27.779,13.064L15.725,23.119L3.779,13.064Z" style="stroke:black;stroke-width:0.5px;"/>
        <rect x="5.772" y="4" width="20" height="18.579" style="fill:rgb(195,195,195);"/>
        <path d="M3.779,29.064L3.779,13.064L15.821,23.322L27.779,13.064L27.779,29.064L3.779,29.064Z" style="fill:rgb(235,235,235);stroke:black;stroke-width:0.5px;"/>
        <path d="M3.793,29.064L27.779,29.064C27.779,29.064 19.949,22.264 16.959,19.668C16.304,19.099 15.33,19.098 14.674,19.665C11.671,22.259 3.793,29.064 3.793,29.064Z" style="fill:white;stroke:black;stroke-width:0.5px;"/>
        <path d="M17.75,9.317L19.042,9.317L18.167,12.284C18.099,12.526 18.05,12.705 18.02,12.821C17.99,12.937 17.976,13.038 17.976,13.125C17.976,13.262 18.021,13.39 18.112,13.511C18.203,13.632 18.349,13.692 18.55,13.692C18.942,13.692 19.335,13.436 19.729,12.923C20.123,12.411 20.32,11.73 20.32,10.883C20.32,9.63 19.783,8.729 18.707,8.183C18.033,7.836 17.274,7.663 16.431,7.663C14.881,7.663 13.637,8.137 12.698,9.085C11.851,9.942 11.427,10.969 11.427,12.168C11.427,13.499 11.924,14.554 12.917,15.333C13.797,16.021 14.87,16.365 16.137,16.365C17.003,16.365 17.812,16.206 18.563,15.887C18.974,15.718 19.397,15.479 19.835,15.169L19.999,15.053L20.498,15.818C19.851,16.32 19.15,16.701 18.396,16.963C17.642,17.225 16.859,17.356 16.048,17.356C14.157,17.356 12.691,16.769 11.652,15.593C10.791,14.618 10.36,13.462 10.36,12.127C10.36,10.632 10.898,9.365 11.974,8.326C13.104,7.228 14.551,6.679 16.314,6.679C17.75,6.679 18.939,7.055 19.883,7.807C20.876,8.6 21.373,9.652 21.373,10.965C21.373,11.999 21.059,12.887 20.43,13.627C19.801,14.368 19.083,14.738 18.276,14.738C17.857,14.738 17.535,14.62 17.309,14.383C17.083,14.146 16.971,13.902 16.971,13.651C16.971,13.619 16.972,13.584 16.974,13.545C16.976,13.507 16.98,13.465 16.984,13.419C16.811,13.747 16.618,14.009 16.403,14.205C16.016,14.556 15.551,14.731 15.009,14.731C14.457,14.731 13.998,14.533 13.631,14.137C13.264,13.74 13.081,13.187 13.081,12.476C13.081,11.651 13.361,10.878 13.922,10.158C14.482,9.438 15.171,9.078 15.986,9.078C16.465,9.078 16.836,9.21 17.101,9.475C17.301,9.68 17.436,9.914 17.504,10.179L17.75,9.317ZM14.804,13.419C14.954,13.624 15.168,13.727 15.446,13.727C15.934,13.727 16.334,13.356 16.646,12.616C16.958,11.875 17.114,11.293 17.114,10.869C17.114,10.628 17.041,10.425 16.896,10.261C16.75,10.097 16.554,10.015 16.308,10.015C15.834,10.015 15.426,10.31 15.084,10.9C14.742,11.49 14.571,12.061 14.571,12.612C14.571,12.945 14.649,13.214 14.804,13.419Z" style="fill:white;fill-rule:nonzero;"/>
        <g>
            <path d="M24.5,20C21.475,20 19,22.475 19,25.5C19,28.525 21.475,31 24.5,31C27.525,31 30,28.525 30,25.5C30,22.475 27.525,20 24.5,20Z"/>
            <path d="M27.701,24.204L24.043,27.862C23.738,28.167 23.281,28.167 22.976,27.862L21.299,26.186C20.995,25.881 20.995,25.424 21.299,25.119C21.604,24.814 22.061,24.814 22.366,25.119L23.509,26.262L26.634,23.138C26.939,22.833 27.396,22.833 27.701,23.138C28.005,23.442 28.005,23.9 27.701,24.204Z" style="fill:white;"/>
        </g>
    </g>
</svg>
